<?xml version="1.0" encoding="utf-8"?>
<!-- Generator: Adobe Illustrator 16.0.0, SVG Export Plug-In . SVG Version: 6.00 Build 0)  -->
<!DOCTYPE svg PUBLIC "-//W3C//DTD SVG 1.1//EN" "http://www.w3.org/Graphics/SVG/1.1/DTD/svg11.dtd">
<svg version="1.1" id="Layer_1" xmlns="http://www.w3.org/2000/svg" xmlns:xlink="http://www.w3.org/1999/xlink" x="0px" y="0px"
	 width="40px" height="40px" viewBox="0 0 40 40" enable-background="new 0 0 40 40" xml:space="preserve">
<circle fill="#FFFFFF" cx="20" cy="20" r="20"/>
<path d="M34.663,13.825v16.955c0,0.229-0.188,0.417-0.416,0.417h-2.218c-0.229,0-0.417-0.188-0.417-0.417l0.003-15.973
	c0-0.202,0.083-0.312,0.234-0.354c0.825-0.169,1.56-0.485,2.281-0.982C34.346,13.338,34.663,13.55,34.663,13.825z"/>
<circle fill="#DA1C5C" cx="33.138" cy="9.984" r="2.126"/>
<path d="M12.496,30.457c-1.505-0.09-1.98-1.229-1.98-2.575V11.17c0-1.345,0.475-2.483,1.979-2.575
	c0.139-0.009,0.24-0.135,0.23-0.273L12.708,8.11c-0.01-0.134-0.125-0.256-0.26-0.251h-0.138H5.546c0,0-0.099,0.002-0.165,0
	c-0.135-0.005-0.25,0.117-0.26,0.251L5.104,8.322C5.093,8.46,5.194,8.586,5.333,8.595c1.505,0.091,1.98,1.23,1.98,2.575v16.712
	c0,1.346-0.475,2.485-1.98,2.575c-0.139,0.01-0.241,0.136-0.23,0.274l0.017,0.212c0.011,0.135,0.125,0.253,0.26,0.253h0.138h6.764
	c0,0,0.098,0,0.165,0c0.135,0,0.25-0.118,0.26-0.253l0.017-0.212C12.737,30.593,12.634,30.467,12.496,30.457z"/>
<path d="M9.669,16.896c5.972,0,9.336-2.745,12.131-6.21c0.988-1.227,1.365-2.127,2.782-2.127c0.146,0,0.242-0.11,0.231-0.222
	l-0.018-0.33c-0.006-0.064-0.07-0.15-0.195-0.15h-0.06c0,0-5.994,0-6.056,0c-0.136,0-0.25,0.081-0.262,0.191l-0.016,0.289
	c-0.012,0.112,0.098,0.215,0.23,0.222c1.431,0.073,1.162,1.077,0.425,2.336c-1.282,2.192-3.973,5.353-9.194,5.353V16.896z"/>
<path d="M29.556,30.637c-10.671-0.63-7.607-12.789-15.961-14.012c-1.917-0.281-2.503-0.361-3.629-0.361l-0.234,0.825
	c6.848,0,7.518,7.928,10.281,11.202c2.156,2.552,4.654,2.973,9.478,3.249l0,0c0.188,0.008,0.335-0.078,0.352-0.265l0.013-0.316
	C29.87,30.769,29.749,30.648,29.556,30.637z"/>
</svg>
